<svg width="54" height="49" viewBox="0 0 54 49" fill="none" xmlns="http://www.w3.org/2000/svg">
<path d="M47.9878 0.870361H13.8825C10.9888 0.870361 8.63558 3.22362 8.63558 6.11732V11.3643H6.0121C3.1184 11.3643 0.765137 13.7176 0.765137 16.6113V42.8461C0.765137 45.7398 3.1184 48.093 6.0121 48.093H21.753C24.6467 48.093 27 45.7398 27 42.8461H47.9878C50.8815 42.8461 53.2348 40.4928 53.2348 37.5991V6.11732C53.2348 3.22362 50.8815 0.870361 47.9878 0.870361ZM21.7451 42.8461H6.0121V16.6113H21.753L21.7451 42.8461ZM47.9799 37.5991H27V16.6113C27 13.7176 24.6467 11.3643 21.753 11.3643H13.8825V6.11732H47.9878L47.9799 37.5991Z" fill="#121215"/>
</svg>
