<svg width="53" height="49" viewBox="0 0 53 49" fill="none" xmlns="http://www.w3.org/2000/svg">
<path d="M47.4697 0.870361H5.49403C2.60033 0.870361 0.24707 3.22362 0.24707 6.11732V42.8461C0.24707 45.7398 2.60033 48.093 5.49403 48.093H47.4697C50.3634 48.093 52.7167 45.7398 52.7167 42.8461V6.11732C52.7167 3.22362 50.3634 0.870361 47.4697 0.870361ZM5.49403 42.8461V11.3643H47.4697L47.475 42.8461H5.49403Z" fill="#121215"/>
<path d="M20.3073 18.3074C19.7951 17.7952 18.9645 17.7952 18.4522 18.3074L10.5821 26.1776C10.0698 26.6899 10.0698 27.5204 10.5821 28.0327L18.4522 35.9028C18.9645 36.4151 19.7951 36.4151 20.3073 35.9028L22.1618 34.0483C22.6741 33.536 22.6741 32.7055 22.1618 32.1932L18.0013 28.0327C17.489 27.5204 17.489 26.6899 18.0013 26.1776L22.1618 22.017C22.6741 21.5048 22.6741 20.6742 22.1618 20.1619L20.3073 18.3074ZM34.5109 18.3074C33.9986 17.7952 33.168 17.7952 32.6558 18.3074L30.8013 20.1619C30.289 20.6742 30.289 21.5048 30.8013 22.017L34.9618 26.1776C35.4741 26.6899 35.4741 27.5204 34.9618 28.0327L30.8013 32.1932C30.289 32.7055 30.289 33.536 30.8013 34.0483L32.6558 35.9028C33.168 36.4151 33.9986 36.4151 34.5109 35.9028L42.381 28.0327C42.8933 27.5204 42.8933 26.6899 42.381 26.1776L34.5109 18.3074Z" fill="#121215"/>
</svg>
