<svg width="53" height="49" viewBox="0 0 53 49" fill="none" xmlns="http://www.w3.org/2000/svg">
<path d="M47.7407 0.882568H5.76503C4.37345 0.882568 3.03886 1.43537 2.05487 2.41937C1.07087 3.40336 0.518066 4.73795 0.518066 6.12953V16.6235C0.518066 18.015 1.07087 19.3496 2.05487 20.3336C3.03886 21.3176 4.37345 21.8704 5.76503 21.8704H47.7407C49.1323 21.8704 50.4669 21.3176 51.4509 20.3336C52.4349 19.3496 52.9877 18.015 52.9877 16.6235V6.12953C52.9877 4.73795 52.4349 3.40336 51.4509 2.41937C50.4669 1.43537 49.1323 0.882568 47.7407 0.882568ZM34.6233 14H29.3764V8.75301H34.6233V14ZM45.1173 14H39.8703V8.75301H45.1173V14ZM47.7407 27.1174H5.76503C4.37345 27.1174 3.03886 27.6702 2.05487 28.6542C1.07087 29.6382 0.518066 30.9728 0.518066 32.3643V42.8583C0.518066 44.2499 1.07087 45.5844 2.05487 46.5684C3.03886 47.5524 4.37345 48.1052 5.76503 48.1052H47.7407C49.1323 48.1052 50.4669 47.5524 51.4509 46.5684C52.4349 45.5844 52.9877 44.2499 52.9877 42.8583V32.3643C52.9877 30.9728 52.4349 29.6382 51.4509 28.6542C50.4669 27.6702 49.1323 27.1174 47.7407 27.1174ZM34.6233 40.2348H29.3764V34.9878H34.6233V40.2348ZM45.1173 40.2348H39.8703V34.9878H45.1173V40.2348Z" fill="#121215"/>
</svg>
