<svg width="49" height="49" viewBox="0 0 49 49" fill="none" xmlns="http://www.w3.org/2000/svg">
<path d="M21.2349 42.2228C25.8915 42.2218 30.414 40.6629 34.0821 37.7943L43.7601 47.4724C44.7845 48.4967 46.4454 48.4967 47.4697 47.4724C48.4941 46.448 48.4941 44.7871 47.4697 43.7628L37.7917 34.0847C40.6618 30.4162 42.2217 25.8928 42.2228 21.2349C42.2228 9.66275 32.8071 0.24707 21.2349 0.24707C9.66275 0.24707 0.24707 9.66275 0.24707 21.2349C0.24707 32.8071 9.66275 42.2228 21.2349 42.2228ZM21.2349 5.49403C29.916 5.49403 36.9758 12.5538 36.9758 21.2349C36.9758 29.916 29.916 36.9758 21.2349 36.9758C12.5538 36.9758 5.49403 29.916 5.49403 21.2349C5.49403 12.5538 12.5538 5.49403 21.2349 5.49403Z" fill="#121215"/>
</svg>
